# xmcd
#
# Track frame offsets:
#	150
#	15427
#	29376
#	42886
#	59656
#	75917
#	88399
#	103214
#	118597
#	133042
#	147935
#	160283
#	174532
#	194202
#	208043
#	224349
#	242167
#	256780
#	273360
#	284499
#
# Disc length: 3971 seconds
#
# Revision: 2
# Processed by: cddbd v1.5.2PL0 Copyright (c) Steve Scherf et al.
# Submitted via: EasyCDDAExtractor 12.0.1.1
#
DISCID=300f8114
DTITLE=Ole Ivars - Jag Trodde Änglara Fanns
DYEAR=2006
DGENRE=Danseband
TTITLE0=Jag Trodde Änglar Fanns
TTITLE1=Nej Så Tjukk Du Har Blitt
TTITLE2=Medisinskapet
TTITLE3=Hyttetur
TTITLE4=Veslejinta Vår
TTITLE5=Ronja
TTITLE6=Var Det Kjärlighet Vi Mötte
TTITLE7=Kongen Av Campingplassen
TTITLE8=Bare En Hund
TTITLE9=Je Har Slutta Å Drekke Brennvin
TTITLE10=Kjärlighetsgudinna
TTITLE11=Kveks I Underbuksa
TTITLE12=Larry Krohns Ensemble
TTITLE13=Vi Tar Det Till Mandan
TTITLE14=En Får Väre Som En Er
TTITLE15=Trur Du Hu Mamma Kan Danse
TTITLE16=En Bit Ta Värmland
TTITLE17=Verdens Beste Sjåför
TTITLE18=Brunögd Men Blåögd
TTITLE19=Det Var Digert
EXTD=
EXTT0=
EXTT1=
EXTT2=
EXTT3=
EXTT4=
EXTT5=
EXTT6=
EXTT7=
EXTT8=
EXTT9=
EXTT10=
EXTT11=
EXTT12=
EXTT13=
EXTT14=
EXTT15=
EXTT16=
EXTT17=
EXTT18=
EXTT19=
PLAYORDER=
